<?xml version="1.0" encoding="UTF-8" standalone="no"?>
<svg
   width="100%"
   height="100%"
   viewBox="0 0 1046 1046"
   version="1.1"
   xml:space="preserve"
   style="fill-rule:evenodd;clip-rule:evenodd;stroke-linejoin:round;stroke-miterlimit:2;"
   id="svg14"
   sodipodi:docname="Sponsor.svg"
   inkscape:version="1.1 (c4e8f9e, 2021-05-24)"
   xmlns:inkscape="http://www.inkscape.org/namespaces/inkscape"
   xmlns:sodipodi="http://sodipodi.sourceforge.net/DTD/sodipodi-0.dtd"
   xmlns="http://www.w3.org/2000/svg"
   xmlns:svg="http://www.w3.org/2000/svg"><defs
   id="defs18" /><sodipodi:namedview
   id="namedview16"
   pagecolor="#ffffff"
   bordercolor="#666666"
   borderopacity="1.0"
   inkscape:pageshadow="2"
   inkscape:pageopacity="0.0"
   inkscape:pagecheckerboard="0"
   showgrid="false"
   inkscape:zoom="0.5776816"
   inkscape:cx="526.24145"
   inkscape:cy="487.29265"
   inkscape:window-width="1659"
   inkscape:window-height="1081"
   inkscape:window-x="644"
   inkscape:window-y="109"
   inkscape:window-maximized="0"
   inkscape:current-layer="svg14" />
    <g
   transform="matrix(1,0,0,1,-1205.78,-2064.49)"
   id="g12">
        <g
   transform="matrix(1,0,0,1,1205.78,470.488)"
   id="g10">
            
            <g
   transform="matrix(0.836579,0.547847,-0.547847,0.836579,-56.831,506.063)"
   id="g8">
                <path
   d="M1270.72,1182.31L1270.72,1206.78C1270.72,1233.48 1289.19,1255.71 1314.56,1260.33C1314.61,1260.39 1314.66,1260.46 1314.56,1260.33L1314.56,1260.33C1314.51,1260.28 1314.45,1260.22 1314.56,1260.33C1303.19,1247.56 1296.62,1231.72 1295.72,1213.51L1318.68,1213.51C1320.66,1241.76 1344.23,1264.09 1372.98,1264.09C1402.98,1264.09 1427.34,1239.78 1427.42,1209.8C1427.41,1209.46 1427.41,1209.12 1427.41,1208.79C1427.41,1208.45 1427.41,1206.46 1427.42,1206.13L1450.34,1206.13C1450.34,1206.46 1450.33,1208.45 1450.33,1208.79C1450.33,1238.83 1474.52,1262.22 1504.56,1262.22C1534.6,1262.22 1558.99,1237.83 1558.99,1207.78C1558.99,1198.58 1558.77,1182.31 1558.77,1182.31C1558.77,1182.31 1558.67,1182.22 1558.48,1182.06C1555.51,1182.22 1552.51,1182.31 1549.49,1182.31L1270.72,1182.31ZM1160.1,1067.46C1160.1,1078.23 1163.5,1085.69 1167.84,1090.99C1178.16,1103.57 1195.29,1103.78 1195.29,1103.78C1195.31,1103.78 1195.33,1103.78 1195.35,1103.78L1518.07,1103.78C1517.98,1103.78 1534.84,1103.75 1544.99,1091.5C1549.25,1086.35 1552.62,1079.06 1552.62,1068.48L1527.62,1068.48C1527.62,1071.68 1527.02,1074 1525.73,1075.55C1522.92,1078.95 1518.16,1078.78 1518.16,1078.78C1518.13,1078.78 1518.1,1078.78 1518.07,1078.78L1195.35,1078.78C1195.41,1078.78 1190.25,1078.88 1187.18,1075.14C1185.79,1073.44 1185.1,1070.92 1185.1,1067.46L1160.1,1067.46ZM1336.62,1052.39L1298.24,1052.39C1298.24,1041.8 1306.84,1033.2 1317.43,1033.2C1328.02,1033.2 1336.62,1041.8 1336.62,1052.39ZM1406.9,1052.39L1368.52,1052.39C1368.52,1041.8 1377.12,1033.2 1387.71,1033.2C1398.3,1033.2 1406.9,1041.8 1406.9,1052.39ZM1208.97,1008.68L1208.97,1008.65C1208.97,972.532 1238.29,943.21 1274.41,943.21C1310.52,943.21 1339.84,972.532 1339.84,1008.65L1339.84,1008.68L1316.93,1008.68L1316.93,1008.65C1316.93,985.18 1297.87,966.127 1274.41,966.127C1250.94,966.127 1231.89,985.18 1231.89,1008.65L1231.89,1008.68L1208.97,1008.68ZM1374.02,1008.68L1374.02,1008.65C1374.02,972.532 1403.34,943.21 1439.45,943.21C1475.57,943.21 1504.89,972.532 1504.89,1008.65L1504.89,1008.68L1481.97,1008.68L1481.97,1008.65C1481.97,985.18 1462.92,966.127 1439.45,966.127C1415.99,966.127 1396.93,985.18 1396.93,1008.65L1396.93,1008.68L1374.02,1008.68ZM1270.72,815.044C1270.72,798.488 1259.27,783.157 1242.72,783.157C1226.16,783.157 1214.72,798.488 1214.72,815.044L1214.72,861.262L1189.8,861.262L1189.8,815.044C1189.8,785.84 1213.51,762.13 1242.72,762.13C1271.92,762.13 1295.63,785.84 1295.63,815.044L1295.63,861.262L1443.21,861.262L1443.21,911.262L1270.72,911.262L1270.72,815.044ZM1443.21,861.262L1418.29,861.262L1418.29,815.044C1418.29,785.84 1442,762.13 1471.2,762.13C1500.41,762.13 1524.12,785.84 1524.12,815.044L1524.12,861.262L1499.21,861.262L1499.21,815.044C1499.21,798.488 1487.76,783.157 1471.2,783.157C1454.65,783.157 1443.21,798.488 1443.21,815.044L1443.21,861.262ZM1174.86,1182.31C1086.27,1182.31 1014.34,1110.38 1014.34,1021.78C1014.34,933.19 1086.27,861.262 1174.86,861.262L1214.72,861.262L1214.72,911.262L1174.86,911.262C1113.86,911.262 1064.34,960.786 1064.34,1021.78C1064.34,1082.78 1113.86,1132.31 1174.86,1132.31L1549.49,1132.31C1610.48,1132.31 1660.01,1082.78 1660.01,1021.78C1660.01,960.786 1610.48,911.262 1549.49,911.262L1499.21,911.262L1499.21,861.262L1549.49,861.262C1638.08,861.262 1710.01,933.19 1710.01,1021.78C1710.01,1099.36 1654.86,1164.15 1581.67,1179.08L1581.67,1179.08C1581.67,1179.08 1581.91,1196.57 1581.91,1207.78C1581.91,1250.47 1547.25,1285.13 1504.56,1285.13C1476.98,1285.13 1452.84,1271.09 1439.2,1249.63C1425.64,1272.03 1401.05,1287.01 1372.98,1287.01C1362.86,1287.01 1353.18,1285.06 1344.32,1281.52L1344.34,1281.53C1337.97,1283.23 1331.27,1284.13 1324.36,1284.13C1281.67,1284.13 1247.01,1249.47 1247.01,1206.78C1247.01,1198.23 1247.14,1182.31 1247.14,1182.31L1174.86,1182.31Z"
   id="path6" />
            </g>
        </g>
    </g>
</svg>
